<mxfile host="app.diagrams.net" modified="2024-03-11T14:33:10.326Z" agent="Mozilla/5.0 (Macintosh; Intel Mac OS X 10_15_7) AppleWebKit/537.36 (KHTML, like Gecko) Chrome/122.0.0.0 Safari/537.36" version="23.1.4" etag="4vr2JZ2z_z4G1GW06J6m" type="github">
  <diagram name="페이지-1" id="6esBQZQ6yRZajvr0pBw1">
    <mxGraphModel>
      <root>
        <mxCell id="0" />
        <mxCell id="1" parent="0" />
      </root>
    </mxGraphModel>
  </diagram>
</mxfile>
